<?xml version="1.0" standalone="no"?>
<!DOCTYPE svg PUBLIC "-//W3C//DTD SVG 20010904//EN"
 "http://www.w3.org/TR/2001/REC-SVG-20010904/DTD/svg10.dtd">
<svg version="1.0" xmlns="http://www.w3.org/2000/svg"
 width="578.000000pt" height="578.000000pt" viewBox="0 0 578.000000 578.000000"
 preserveAspectRatio="xMidYMid meet">
<metadata>
Created by potrace 1.11, written by Peter Selinger 2001-2013
</metadata>
<g transform="translate(0.000000,578.000000) scale(0.100000,-0.100000)"
fill="#000000" stroke="none">
<path d="M2678 5215 c-2 -2 -42 -5 -89 -9 -48 -3 -93 -8 -100 -10 -8 -3 -36
-7 -64 -10 -27 -3 -93 -15 -145 -26 -796 -170 -1412 -724 -1674 -1504 -39
-116 -91 -334 -101 -426 -3 -30 -8 -66 -10 -80 -3 -14 -7 -87 -10 -163 -2 -76
-6 -141 -9 -145 -2 -4 -18 -9 -35 -10 -129 -10 -304 -131 -373 -258 -138 -254
-45 -582 202 -713 140 -75 268 -85 441 -35 13 3 29 -17 62 -80 250 -462 663
-828 1142 -1013 85 -33 199 -71 234 -78 9 -2 44 -10 78 -19 73 -19 202 -42
293 -51 36 -4 81 -9 100 -11 43 -5 383 -5 425 0 17 2 66 7 110 11 44 4 82 9
85 10 3 2 26 6 50 10 295 43 647 182 905 358 176 121 385 320 511 488 114 152
225 345 299 521 15 38 32 68 37 68 5 0 23 -6 41 -14 160 -66 392 -15 530 118
337 324 108 896 -358 898 l-75 0 -1 32 c-1 94 -15 181 -64 410 -12 54 -72 233
-108 321 -135 333 -348 631 -614 863 -254 220 -571 385 -909 471 -82 21 -275
55 -379 67 -54 6 -422 14 -427 9z m592 -859 c549 -49 1012 -331 1242 -756 182
-337 189 -779 17 -1122 -95 -190 -275 -394 -450 -510 -217 -144 -484 -242
-749 -275 -122 -15 -508 -7 -539 11 -3 2 -26 7 -51 10 -94 13 -237 55 -355
105 -54 23 -197 99 -257 137 -205 132 -382 330 -485 544 -37 77 -89 244 -99
315 -4 28 -8 59 -11 70 -6 31 -4 234 3 285 6 43 16 97 28 149 35 150 142 363
246 486 242 287 575 465 1005 540 17 3 66 8 110 11 44 4 81 7 82 8 5 4 195 -2
263 -8z"/>
<path d="M2794 3437 c-3 -8 7 -45 22 -83 65 -169 73 -271 36 -434 -30 -136 -9
-157 101 -100 80 41 132 93 169 167 27 56 30 70 26 126 -7 82 -36 138 -113
213 -91 89 -225 151 -241 111z"/>
<path d="M3705 3431 c-3 -6 4 -36 15 -68 55 -152 62 -180 63 -263 1 -84 -3
-126 -23 -205 -17 -71 -13 -104 14 -111 52 -13 179 68 235 149 87 128 66 255
-63 382 -88 86 -220 150 -241 116z"/>
</g>
</svg>
